<svg id="Camada_7" data-name="Camada 7" xmlns="http://www.w3.org/2000/svg" viewBox="0 0 886.45 250"><defs><style>.cls-1{fill:#3350b8}.cls-4{fill:#fff}</style></defs><path class="cls-1" d="M156.49 0H31.25A31.34 31.34 0 000 31.25v76h156.49z"/><path d="M218.75 0h-62.26v135.35l28.3-28.1H250v-76A31.34 31.34 0 00218.75 0z" fill="#ffc000"/><path d="M250 107.25h-65.21l-28.3 28.1v-28.1H0v111.5A31.34 31.34 0 0031.25 250h187.5A31.34 31.34 0 00250 218.75v-111.5z" fill="#009c49"/><path class="cls-4" d="M61.31 53.62h11.27v33.82H61.31zm22.54-23.23h11.27v57.05H83.85zM38.76 41.66h11.27v45.78H38.76zm67.63-21.85h11.27v67.63h-11.27zm22.91 154.96h-8.62a8.36 8.36 0 110-16.71h25.4v-11.13h-15.47v-9.85h-11.22V147a19.5 19.5 0 001.32 39h8.61a8.35 8.35 0 110 16.7h-25.35v11.15h15.42v9.85h11.22v-9.9a19.5 19.5 0 00-1.31-39z"/><path class="cls-4" transform="rotate(-90 203.245 43.545)" d="M197.61 19.34h11.27v48.42h-11.27z"/><path class="cls-4" transform="rotate(-90 203.245 66.095)" d="M197.61 41.88h11.27V90.3h-11.27z"/><path class="cls-1" d="M429.54 62.58v125.83h-20.76v-96l-42.07 58.11-40.18-57.76v95.65h-20.19V62.58H328l39.62 58.48 40.56-58.48zm35.37 115.83q-11.43-12.82-11.42-37.35 0-49.62 45.28-49.62 22.83 0 34.33 12.73t11.51 36.89q0 24.15-11.88 37.16t-33.77 13q-22.63.02-34.05-12.81zm59.89-37.35q0-16.6-6.22-24.81T498.77 108q-13.77 0-19.72 8.4t-5.94 24.62q0 16.22 6.13 24.8t19.53 8.59q26.04.04 26.03-33.35zm118.66-36.79q10.95 12.65 10.95 35.84 0 27.93-13.12 39.53T608 191.24q-40.56 0-40.56-21.51V55.78h19.62v41.7a59.23 59.23 0 0112.35-4.25 53.8 53.8 0 0112-1.6q21.12 0 32.05 12.64zm-15.37 60.93q6.12-8.87 6.13-24.33 0-15.85-6.51-24.15t-19.34-8.3a46.28 46.28 0 00-11 1.41 38.77 38.77 0 00-10.28 4.06v50.94q0 9.24 19.43 9.24 15.48 0 21.57-8.87zM678 94.27h19.8l.18 94.14H678zm48.47 94.14V57.86h19.62v130.55zm47.53 0V57.86h19.62v130.55zm58.59.94a88.74 88.74 0 01-14.81-5.66V165a84 84 0 0015.47 7.83 45.36 45.36 0 0015.66 2.55q8.1 0 12.73-3.3a10.11 10.11 0 004.62-8.58c0-3.4-1.26-5.91-3.77-7.55a59.29 59.29 0 00-11.7-5.28l-4.34-1.51q-13.2-3.21-21-9.25t-7.83-18.86q0-10 5.28-16.6a30.41 30.41 0 0113.3-9.62 47.59 47.59 0 0116.89-3A54.57 54.57 0 01868.34 94a90.07 90.07 0 0113.58 5.75v17a152.81 152.81 0 00-14.81-7 33.92 33.92 0 00-12-1.89q-7.74 0-12.45 2.83a8.83 8.83 0 00-4.72 7.93q0 6 4.72 8.77t14.71 5.56a116.77 116.77 0 0115 5.1 25.12 25.12 0 019.81 8q4.24 5.58 4.25 15.19-.19 15.09-11 22.55t-26.5 7.45a62.13 62.13 0 01-16.34-1.89z"/><rect class="cls-1" x="677.42" y="57.84" width="21.13" height="21.13" rx="10.56"/></svg>